<?xml version="1.0" encoding="UTF-8"?>
<svg id="Laag_1" xmlns="http://www.w3.org/2000/svg" version="1.1" viewBox="0 0 985 513.49">
  <!-- Generator: Adobe Illustrator 29.8.2, SVG Export Plug-In . SVG Version: 2.1.1 Build 3)  -->
  <defs>
    <style>
      .st0 {
        fill: #010101;
      }

      .st1 {
        fill: #1d1d1b;
      }
    </style>
  </defs>
  <g>
    <path class="st1" d="M37.42,34.34h37.98s13.96,62.49,13.96,62.49l13.8-62.49h36.36s13.8,62.49,13.8,62.49l13.96-62.49h37.98s-31.65,112-31.65,112h-37.33s-14.93-63.3-14.93-63.3l-14.93,63.3h-37.33s-31.65-112-31.65-112Z"/>
    <path class="st1" d="M214.03,90.51c0-36.68,25.97-58.11,60.87-58.11s60.87,21.43,60.87,58.11-25.97,57.78-60.87,57.78c-34.9,0-60.87-21.26-60.87-57.78ZM298.76,90.18c0-15.42-9.25-26.14-23.86-26.14-14.45,0-23.86,10.72-23.86,26.14,0,15.74,9.41,26.46,23.86,26.46,14.61,0,23.86-10.71,23.86-26.45Z"/>
    <path class="st1" d="M355.57,34.34h48.7c27.27,0,46.26,11.69,46.26,35.71,0,15.91-6.17,26.3-18.67,33.76l25.16,42.53h-42.2s-18.51-37.34-18.51-37.34h-4.06s0,37.34,0,37.34h-36.68s0-112,0-112ZM413.52,71.68c0-6.66-5.52-9.74-12.17-9.74h-9.25s0,19.47,0,19.47h9.25c7.31,0,12.17-3.09,12.17-9.74Z"/>
    <path class="st1" d="M473.09,34.34h36.68s0,81.81,0,81.81h37.98s0,30.19,0,30.19h-74.67s0-112,0-112Z"/>
    <path class="st1" d="M566.58,34.34h41.88c38.96,0,63.63,17.05,63.63,56,0,38.96-24.67,56-63.63,56h-41.88s0-112,0-112ZM635.08,90.34c0-16.39-6.98-25.65-23.54-25.65h-8.28s0,51.29,0,51.29h8.28c16.39,0,23.54-9.09,23.54-25.65Z"/>
    <path class="st1" d="M41.16,251.85c0-36.68,25.97-58.11,60.87-58.11,34.9,0,60.87,21.43,60.87,58.11,0,36.52-25.97,57.78-60.87,57.78-34.9,0-60.87-21.26-60.87-57.78ZM125.89,251.53c0-15.42-9.25-26.14-23.86-26.14-14.45,0-23.86,10.72-23.86,26.14s9.41,26.46,23.86,26.46c14.61,0,23.86-10.71,23.86-26.45Z"/>
    <path class="st1" d="M182.7,195.69h77.91s0,30.19,0,30.19h-41.23s0,16.07,0,16.07h38.79s0,28.89,0,28.89h-38.79s0,36.85,0,36.85h-36.68s0-112,0-112Z"/>
    <path class="st1" d="M322.13,195.69h46.42c23.7,0,44.96,5.68,44.96,28.41,0,12.99-8.44,21.75-15.91,24.67v.32c12.99,3.57,21.42,13.15,21.42,27.76,0,22.4-20.78,30.84-41.71,30.84h-55.19s0-112,0-112ZM376.83,230.59c0-6.49-4.06-7.95-11.2-7.95h-6.82s0,15.91,0,15.91h6.82c6.98,0,11.2-1.95,11.2-7.95ZM382.03,271.82c0-6.49-4.06-8.93-11.2-8.93h-12.01s0,17.85,0,17.85h12.01c6.65,0,11.2-2.59,11.2-8.92Z"/>
    <path class="st1" d="M434.78,251.85c0-36.68,25.97-58.11,60.87-58.11,34.9,0,60.87,21.43,60.87,58.11,0,36.52-25.97,57.78-60.87,57.78-34.9,0-60.87-21.26-60.87-57.78ZM519.51,251.53c0-15.42-9.25-26.14-23.86-26.14-14.45,0-23.86,10.72-23.86,26.14,0,15.74,9.41,26.46,23.86,26.46,14.61,0,23.86-10.71,23.86-26.45Z"/>
    <path class="st1" d="M599.04,195.69h40.58s38.95,112,38.95,112h-38.63s-4.38-15.74-4.38-15.74h-32.46s-4.38,15.74-4.38,15.74h-38.63s38.96-112,38.96-112ZM628.75,264.02l-9.41-31.17-9.41,31.17h18.83Z"/>
    <path class="st1" d="M693.51,195.69h48.7c27.27,0,46.26,11.69,46.26,35.71,0,15.91-6.17,26.3-18.67,33.76l25.16,42.53h-42.2s-18.51-37.34-18.51-37.34h-4.06s0,37.34,0,37.34h-36.68s0-112,0-112ZM751.46,233.02c0-6.66-5.52-9.74-12.17-9.74h-9.25s0,19.47,0,19.47h9.25c7.31,0,12.17-3.09,12.17-9.74Z"/>
    <path class="st1" d="M811.03,195.69h41.88c38.96,0,63.63,17.05,63.63,56s-24.67,56-63.63,56h-41.88s0-112,0-112ZM879.53,251.69c0-16.39-6.98-25.65-23.54-25.65h-8.28s0,51.29,0,51.29h8.28c16.39,0,23.54-9.09,23.54-25.65Z"/>
  </g>
  <g>
    <path class="st0" d="M42.92,391.17l3.09-2.97c2.18,3.21,5.99,6.48,10.9,6.48,4.36,0,8.24-2.6,8.24-7.27,0-4.42-3.57-6.6-7.39-8.23l-6.18-2.66c-4.66-2-7.02-5.21-7.02-9.87,0-7.45,6.05-10.96,12.41-10.96,5.45,0,9.57,2.55,11.87,5.39l-2.67,3.03c-1.88-2.18-4.6-4.48-9.08-4.48-4.36,0-7.93,2.18-7.93,6.6,0,3.69,2.42,5.51,5.81,6.97l5.69,2.42c4.72,2,9.15,4.84,9.15,11.2,0,7.75-6.6,11.81-13.5,11.81-6.72,0-10.96-3.88-13.38-7.45Z"/>
    <path class="st0" d="M91.35,382.39v-26.16s4.54,0,4.54,0v26.28c0,8.05,4.06,12.17,10.84,12.17,6.78,0,10.84-4.12,10.84-12.17v-26.28s4.54,0,4.54,0v26.16c0,9.99-4.54,16.29-15.38,16.29-10.84,0-15.38-6.3-15.38-16.29Z"/>
    <path class="st0" d="M143.29,391.17l3.09-2.97c2.18,3.21,5.99,6.48,10.9,6.48,4.36,0,8.24-2.6,8.24-7.27,0-4.42-3.57-6.6-7.39-8.23l-6.18-2.66c-4.66-2-7.02-5.21-7.02-9.87,0-7.45,6.05-10.96,12.41-10.96,5.45,0,9.57,2.55,11.87,5.39l-2.67,3.03c-1.88-2.18-4.6-4.48-9.08-4.48s-7.93,2.18-7.93,6.6c0,3.69,2.42,5.51,5.81,6.97l5.69,2.42c4.72,2,9.15,4.84,9.15,11.2,0,7.75-6.6,11.81-13.5,11.81-6.72,0-10.96-3.88-13.38-7.45Z"/>
    <path class="st0" d="M199.89,360.22h-12.17v-4s28.82,0,28.82,0v4h-12.11s0,37.79,0,37.79h-4.54s0-37.79,0-37.79Z"/>
    <path class="st0" d="M246.02,356.11h3.39s17.38,41.9,17.38,41.9h-4.84s-4.66-11.69-4.66-11.69h-19.13s-4.66,11.69-4.66,11.69h-4.84s17.38-41.9,17.38-41.9ZM255.77,382.39l-8.05-20.1-8.05,20.1h16.11Z"/>
    <path class="st0" d="M286.27,356.23h4.54s0,41.78,0,41.78h-4.54s0-41.78,0-41.78Z"/>
    <path class="st0" d="M314.91,356.23h4.66s25.56,34.46,25.56,34.46c0-3.27,0-6.6,0-9.87v-24.59s4.54,0,4.54,0v41.78s-4.36,0-4.36,0l-25.92-34.94c0,3.02.06,8.9.06,14.71v20.22h-4.54s0-41.78,0-41.78Z"/>
    <path class="st0" d="M386.53,356.11h3.39s17.38,41.9,17.38,41.9h-4.84s-4.66-11.69-4.66-11.69h-19.13s-4.66,11.69-4.66,11.69h-4.84s17.38-41.9,17.38-41.9ZM396.27,382.39l-8.05-20.1-8.05,20.1h16.11Z"/>
    <path class="st0" d="M426.78,356.23h10.9c7.57,0,13.38,2.54,13.38,10.48,0,4.3-2.91,7.93-6.6,9.14v.12c6.06,1.09,9.45,4.66,9.45,10.29,0,8.24-5.39,11.75-14.29,11.75h-12.84s0-41.78,0-41.78ZM446.4,367.13c0-5.33-3.75-6.96-8.96-6.96h-6.12s0,14.29,0,14.29h5.27c5.51,0,9.81-1.82,9.81-7.33ZM449.24,386.26c0-5.81-4.66-7.93-11.14-7.93h-6.78s0,15.75,0,15.75h7.02c6.6,0,10.9-1.33,10.9-7.81Z"/>
    <path class="st0" d="M475.82,356.23h4.54s0,37.79,0,37.79h14.77v4h-19.32s0-41.78,0-41.78Z"/>
    <path class="st0" d="M515.53,356.23h23.49s0,4,0,4h-18.95s0,13.74,0,13.74h17.87v3.94h-17.87s0,16.11,0,16.11h19.38v4s-23.92,0-23.92,0v-41.78Z"/>
    <path class="st0" d="M587.81,356.23h11.93c12.9,0,21.92,8.42,21.92,20.95,0,11.93-9.02,20.83-21.92,20.83h-11.93s0-41.78,0-41.78ZM617,377.12c0-10.48-6.9-16.89-17.38-16.89h-7.27s0,33.79,0,33.79h7.27c11.14,0,17.38-7.81,17.38-16.89Z"/>
    <path class="st0" d="M643.26,356.23h23.49s0,4,0,4h-18.95s0,13.74,0,13.74h17.86v3.94h-17.86s0,16.11,0,16.11h19.38v4s-23.92,0-23.92,0v-41.78Z"/>
    <path class="st0" d="M686.6,391.17l3.09-2.97c2.18,3.21,5.99,6.48,10.9,6.48,4.36,0,8.24-2.6,8.24-7.27,0-4.42-3.57-6.6-7.39-8.23l-6.18-2.66c-4.66-2-7.02-5.21-7.02-9.87,0-7.45,6.05-10.96,12.41-10.96,5.45,0,9.57,2.55,11.87,5.39l-2.67,3.03c-1.88-2.18-4.6-4.48-9.08-4.48-4.36,0-7.93,2.18-7.93,6.6,0,3.69,2.42,5.51,5.81,6.97l5.69,2.42c4.72,2,9.15,4.84,9.15,11.2,0,7.75-6.6,11.81-13.5,11.81s-10.96-3.88-13.38-7.45Z"/>
    <path class="st0" d="M735.4,356.23h4.54s0,41.78,0,41.78h-4.54s0-41.78,0-41.78Z"/>
    <path class="st0" d="M761.55,377.3c0-12.96,8.96-21.74,21.44-21.74,7.81,0,13.2,3.57,16.41,7.27l-3.09,3.09c-2.72-3.21-7.15-6.36-13.56-6.36-9.33,0-16.53,6.72-16.53,17.56,0,10.9,7.27,17.56,17.44,17.56,4.6,0,9.2-1.33,12.11-4.12v-10.36s-11.99,0-11.99,0v-4h16.47s0,15.87,0,15.87c-3.63,4.24-10.17,6.6-16.96,6.6-12.96,0-21.74-8.6-21.74-21.38Z"/>
    <path class="st0" d="M822.99,356.23h4.66s25.55,34.46,25.55,34.46v-9.87s0-24.59,0-24.59h4.54s0,41.78,0,41.78h-4.36s-25.92-34.94-25.92-34.94c0,3.02.06,8.9.06,14.71v20.22h-4.54s0-41.78,0-41.78Z"/>
    <path class="st0" d="M881.96,395.35c0-2.06,1.45-3.39,3.45-3.39s3.45,1.33,3.45,3.39c0,1.94-1.45,3.27-3.45,3.27-2,0-3.45-1.33-3.45-3.27Z"/>
    <path class="st0" d="M45.46,432.23h10.84c7.63,0,13.56,3.88,13.56,11.51,0,7.93-6.3,11.63-14.35,11.63h-5.51s0,18.65,0,18.65h-4.54s0-41.78,0-41.78ZM65.2,443.8c0-5.33-4.12-7.63-9.08-7.63h-6.12s0,15.26,0,15.26h5.87c5.45,0,9.33-2.24,9.33-7.63Z"/>
    <path class="st0" d="M90.62,458.39v-26.16s4.54,0,4.54,0v26.28c0,8.05,4.06,12.17,10.84,12.17,6.78,0,10.84-4.12,10.84-12.17v-26.28s4.54,0,4.54,0v26.16c0,9.99-4.54,16.29-15.38,16.29-10.84,0-15.38-6.3-15.38-16.29Z"/>
    <path class="st0" d="M145.1,432.23h11.32c7.57,0,12.96,3.82,12.96,11.38,0,6.36-4.18,10.17-9.99,11.39l12.41,19.01h-5.39s-11.99-18.65-11.99-18.65h-4.79s0,18.65,0,18.65h-4.54s0-41.78,0-41.78ZM164.72,443.8c0-5.75-4.18-7.63-10.05-7.63h-5.03s0,15.26,0,15.26h4.42c6.12,0,10.66-1.51,10.66-7.63Z"/>
    <path class="st0" d="M192.32,432.23h23.49s0,4,0,4h-18.95s0,13.74,0,13.74h17.87v3.94h-17.87s0,16.11,0,16.11h19.38v4s-23.92,0-23.92,0v-41.78Z"/>
    <path class="st0" d="M262.12,453.25c0-12.96,9.2-21.62,21.32-21.62,7.33,0,12.29,3.21,14.9,5.81l-2.36,3.45c-1.82-2.42-6.72-5.27-12.72-5.27-9.45,0-16.47,6.84-16.47,17.44,0,10.41,6.84,17.68,16.59,17.68,5.69,0,10.05-2.48,12.96-5.63l2.36,3.27c-2.79,3.09-7.69,6.36-15.26,6.36-12.35,0-21.32-8.72-21.32-21.5Z"/>
    <path class="st0" d="M320.05,432.23h11.32c7.57,0,12.96,3.82,12.96,11.38,0,6.36-4.18,10.17-9.99,11.39l12.41,19.01h-5.39s-11.99-18.65-11.99-18.65h-4.79s0,18.65,0,18.65h-4.54s0-41.78,0-41.78ZM339.67,443.8c0-5.75-4.18-7.63-10.05-7.63h-5.03s0,15.26,0,15.26h4.42c6.12,0,10.66-1.51,10.66-7.63Z"/>
    <path class="st0" d="M380.05,432.11h3.39s17.38,41.9,17.38,41.9h-4.84s-4.66-11.69-4.66-11.69h-19.13s-4.66,11.69-4.66,11.69h-4.84s17.38-41.9,17.38-41.9ZM389.8,458.39l-8.05-20.1-8.05,20.1h16.11Z"/>
    <path class="st0" d="M420.3,432.23h22.16v3.94h-17.62s0,15.2,0,15.2h16.53v3.94h-16.53s0,18.71,0,18.71h-4.54s0-41.78,0-41.78Z"/>
    <path class="st0" d="M471.82,436.23h-12.17v-4s28.82,0,28.82,0v4h-12.11s0,37.79,0,37.79h-4.54s0-37.79,0-37.79Z"/>
    <path class="st0" d="M505.66,467.18l3.09-2.97c2.18,3.21,5.99,6.48,10.9,6.48,4.36,0,8.24-2.6,8.24-7.27,0-4.42-3.57-6.6-7.39-8.23l-6.18-2.66c-4.66-2-7.02-5.21-7.02-9.87,0-7.45,6.05-10.96,12.41-10.96,5.45,0,9.57,2.55,11.87,5.39l-2.67,3.03c-1.88-2.18-4.6-4.48-9.08-4.48-4.36,0-7.93,2.18-7.93,6.6,0,3.69,2.42,5.51,5.81,6.97l5.69,2.42c4.72,2,9.14,4.84,9.14,11.2,0,7.75-6.6,11.81-13.51,11.81s-10.96-3.88-13.38-7.45Z"/>
    <path class="st0" d="M556.57,432.23h5.21s13.2,33.73,13.2,33.73l13.2-33.73h5.21s4.18,41.78,4.18,41.78h-4.48s-3.33-34.46-3.33-34.46l-13.69,35h-2.18s-13.69-35-13.69-35l-3.33,34.46h-4.48s4.18-41.78,4.18-41.78Z"/>
    <path class="st0" d="M632.37,432.11h3.39s17.38,41.9,17.38,41.9h-4.84s-4.66-11.69-4.66-11.69h-19.13s-4.66,11.69-4.66,11.69h-4.84s17.38-41.9,17.38-41.9ZM642.12,458.39l-8.05-20.1-8.05,20.1h16.11Z"/>
    <path class="st0" d="M672.62,432.23h4.66s25.56,34.46,25.56,34.46c0-3.27,0-6.6,0-9.87v-24.59s4.54,0,4.54,0v41.78s-4.36,0-4.36,0l-25.92-34.94c0,3.02.06,8.9.06,14.71v20.22h-4.54s0-41.78,0-41.78Z"/>
    <path class="st0" d="M728.92,467.18l3.09-2.97c2.18,3.21,5.99,6.48,10.9,6.48,4.36,0,8.24-2.6,8.24-7.27,0-4.42-3.57-6.6-7.39-8.23l-6.18-2.66c-4.66-2-7.02-5.21-7.02-9.87,0-7.45,6.05-10.96,12.41-10.96,5.45,0,9.57,2.55,11.87,5.39l-2.67,3.03c-1.88-2.18-4.6-4.48-9.08-4.48-4.36,0-7.93,2.18-7.93,6.6,0,3.69,2.42,5.51,5.81,6.97l5.69,2.42c4.72,2,9.15,4.84,9.15,11.2,0,7.75-6.6,11.81-13.5,11.81-6.72,0-10.96-3.88-13.38-7.45Z"/>
    <path class="st0" d="M777.71,432.23h4.54v17.74s23.98,0,23.98,0v-17.74h4.54s0,41.78,0,41.78h-4.54v-20.1s-23.98,0-23.98,0v20.1h-4.54s0-41.78,0-41.78Z"/>
    <path class="st0" d="M834.86,432.23h4.54s0,41.78,0,41.78h-4.54s0-41.78,0-41.78Z"/>
    <path class="st0" d="M863.49,432.23h10.84c7.63,0,13.56,3.88,13.56,11.51,0,7.93-6.3,11.63-14.35,11.63h-5.51s0,18.65,0,18.65h-4.54s0-41.78,0-41.78ZM883.23,443.8c0-5.33-4.12-7.63-9.08-7.63h-6.12s0,15.26,0,15.26h5.87c5.45,0,9.33-2.24,9.33-7.63Z"/>
    <path class="st0" d="M898.85,471.35c0-2.06,1.45-3.39,3.45-3.39s3.45,1.33,3.45,3.39c0,1.94-1.45,3.27-3.45,3.27-2,0-3.45-1.33-3.45-3.27Z"/>
  </g>
</svg>